<svg width="15" height="15" viewBox="0 0 15 15" fill="none" xmlns="http://www.w3.org/2000/svg">
<path d="M7.33398 0C11.384 8.78813e-05 14.667 3.28297 14.667 7.33301C14.667 11.383 11.384 14.6659 7.33398 14.666C3.2839 14.666 5.41139e-06 11.3831 0 7.33301C0 3.28292 3.2839 0 7.33398 0ZM4.8125 6.125C4.80443 6.13267 4.79637 6.14058 4.78809 6.14844C4.66127 6.26877 4.51166 6.41076 4.40039 6.5498C4.26671 6.71687 4.10547 6.97748 4.10547 7.33301C4.10547 7.68854 4.26671 7.94914 4.40039 8.11621C4.51165 8.25526 4.66127 8.39725 4.78809 8.51758C4.79637 8.52544 4.80443 8.53335 4.8125 8.54102L8.34375 11.8955L9.49121 10.6875L5.96094 7.33301L9.49121 3.97852L8.34375 2.77051L4.8125 6.125Z" fill="#3F331C"/>
</svg>
