<svg width="77" height="81" viewBox="0 0 77 81" fill="none" xmlns="http://www.w3.org/2000/svg">
<path d="M11.959 0.0826215C15.5879 -0.406429 19.2719 1.29646 20.8987 4.63695C27.8357 3.06601 35.5905 4.31591 42.0164 7.24067C45.8592 2.2432 53.8233 2.53303 57.3562 7.67791C58.6712 9.62653 59.1633 12.016 58.7252 14.326C58.292 16.5337 57.2319 17.7551 55.4498 18.9702C57.6967 23.2266 58.7695 29.6844 56.4562 34.1088C60.2508 35.5268 63.9753 38.5884 66.6322 41.6013C66.9863 41.3785 67.2914 41.2091 67.6747 41.0368C69.1655 40.3726 70.8593 40.3328 72.3804 40.9262C73.9257 41.536 75.1589 42.7465 75.7968 44.2814C77.4588 48.1944 75.6877 51.7928 71.8517 53.3504C73.0152 61.6406 72.2062 74.4427 63.9023 79.0973C60.3994 81.0607 55.5815 81.3031 51.768 80.1923C49.9906 79.5679 47.5905 78.4297 47.722 76.1136C47.8163 74.4526 49.3597 73.5601 50.5163 72.5789L50.6632 71.1683C46.3359 73.1162 40.5051 73.1333 35.8934 72.4424C35.9617 77.714 32.3619 79.5093 27.6366 80.1689C24.3037 80.6343 19.9508 80.439 17.0899 78.4619C16.2446 77.8777 15.6251 76.828 15.5457 75.8119C15.3799 73.8923 16.9181 73.4295 17.9477 72.2018C18.5628 71.4683 18.3977 70.9392 18.293 70.0237C13.8975 69.1626 15.2519 66.2836 17.6946 64.0792C16.9151 62.744 16.8345 61.7127 16.661 60.213C9.85538 62.5078 3.98435 57.4619 4.04116 50.5485C4.07555 46.3519 5.51407 43.3139 8.38187 40.364C7.75222 39.8871 7.13894 39.3891 6.54293 38.8708C-2.2462 31.2098 -1.80806 20.2943 5.63027 11.8403C4.98123 11.0455 4.4531 9.6988 4.35523 8.68403C3.89693 3.93245 7.56693 0.659847 11.959 0.0826215Z" fill="#3F331C"/>
<path d="M12.3857 1.677C15.1718 1.39248 18.5241 2.6001 19.401 5.48972C19.7962 6.79158 20.6268 6.34616 21.7483 6.11694C23.5687 5.74485 25.0519 5.60789 26.91 5.58895C30.9542 5.55335 34.9737 6.22435 38.7872 7.57151C39.9287 7.98527 41.0273 8.53916 42.1505 9.00534C42.6082 9.19532 42.8721 8.72066 43.1311 8.43417C43.466 8.0639 43.7971 7.55333 44.1654 7.22488C46.4199 5.21428 49.4004 4.80493 52.2286 5.72394C54.0806 6.31435 55.617 7.6256 56.4912 9.36198C57.9701 12.3093 57.5015 16.2547 54.4638 17.6125C53.3698 18.1016 53.427 18.4024 53.9408 19.426C55.617 22.7654 56.5369 26.5028 56.0295 30.2454C55.805 31.9227 54.9413 33.3446 54.6886 34.9668C54.6871 34.9979 58.5122 36.8499 58.9838 37.1377C62.7591 39.4422 66.0316 42.6073 67.9958 46.6129C71.4531 53.534 71.3122 62.365 69.2094 69.6563C66.8764 77.7424 59.4753 80.8379 51.7555 78.5431C50.8934 78.2868 49.8684 77.6856 49.5022 76.8167C48.7292 74.9828 51.5354 74.3257 52.0537 72.8677C52.3977 71.879 51.8791 70.7848 52.581 69.8305C52.7125 69.6517 52.5786 69.3804 52.4701 69.2007C52.3694 69.1554 52.2489 69.101 52.1085 69.0378C50.4439 69.5155 48.7194 70.2532 47.0368 70.6257C43.3535 71.4199 39.5482 71.4663 35.8466 70.7618C34.7919 70.5666 32.6837 69.5837 32.0077 70.2588C31.7131 71.4975 33.3967 71.8021 34.2725 72.0561C34.2919 73.3573 34.3453 74.8489 33.464 75.958C32.1489 77.613 29.2522 78.3563 27.169 78.6363C24.4849 78.997 20.4255 78.8557 18.1078 77.2669C17.6406 76.9466 17.2482 76.3116 17.1995 75.7347C17.0982 74.5297 18.5726 74.0183 19.2565 73.1578C20.1479 72.0364 20.0742 71.196 19.953 69.8858C22.3953 69.7319 24.933 68.6054 26.8604 67.1184C29.5831 68.1874 31.7264 68.6138 34.6066 68.9124C39.4456 69.1712 44.5799 68.502 48.9019 66.1947C51.0312 67.7182 54.7493 67.7541 57.2187 67.0687C57.9974 66.8527 59.0323 66.4952 58.6936 65.5198C57.9579 64.881 56.8258 65.4827 55.8871 65.7139C51.1325 66.8845 44.6008 63.1848 47.2012 57.711C48.6551 54.6504 53.4711 53.4356 56.6101 53.6196C57.4358 53.6679 58.551 53.9332 58.912 52.8361C60.8746 45.2958 54.4438 39.3309 48.2791 36.5578C38.3868 32.1078 20.8824 34.4213 16.1465 45.5722C15.4342 45.6943 14.1774 45.8829 13.9563 46.6924C14.4551 47.4092 15.9709 47.231 16.7664 47.2717C21.6396 47.5211 23.1724 53.3691 19.7749 56.5193C13.8274 62.0339 5.25643 58.334 5.62034 50.1248C5.78351 46.4414 7.16324 43.7158 9.81469 41.1948C10.6805 41.8129 12.5961 43.0651 13.5838 42.2681L13.5697 41.9952C13.1231 41.1327 11.8341 40.6121 10.9757 40.1251C1.5531 34.7767 -1.34106 24.1609 5.02024 15.16C5.60731 14.3293 6.95963 12.8532 7.4208 12.0327C7.17264 11.0137 5.9638 9.41546 5.89956 8.39918C5.64837 4.42996 8.65282 2.09697 12.3857 1.677Z" fill="#FFF1D5"/>
<path d="M20.1991 26.9126C21.492 26.9235 23.3258 26.9734 24.0902 28.2122C24.2886 29.6292 22.4546 29.7968 21.9232 30.7317C21.7324 32.6212 23.7616 32.3884 24.3604 33.2295C24.4207 33.6328 24.4422 33.468 24.2605 33.8529C23.4052 34.5891 22.2692 33.7878 21.5206 33.2584C21.2603 32.9582 21.0396 32.5886 20.8217 32.2525C20.0966 32.8913 18.4847 34.0038 17.3502 33.0341C17.1379 32.8526 17.1937 32.6115 17.2358 32.3628C18.1869 31.1944 19.1857 32.9954 20.2031 30.3452L20.2575 30.2016C18.5769 29.2307 17.4417 27.3589 20.1991 26.9126Z" fill="#3F331C"/>
<path d="M34.3118 23.9151C35.5859 23.7903 36.7225 24.7158 36.8587 25.989C36.9949 27.2624 36.0798 28.4074 34.8082 28.5552C33.5203 28.7048 32.3575 27.7752 32.2195 26.4856C32.0815 25.196 33.0214 24.0414 34.3118 23.9151Z" fill="#3F331C"/>
<path d="M12.414 20.7595C13.6402 20.5102 14.8414 21.2847 15.1207 22.5047C15.4001 23.7246 14.6558 24.945 13.4433 25.2543C12.632 25.4614 11.7722 25.2122 11.1971 24.6035C10.6222 23.9946 10.4222 23.1219 10.675 22.3234C10.9277 21.5249 11.5934 20.9264 12.414 20.7595Z" fill="#3F331C"/>
<path d="M12.747 7.00418C13.3499 7.00251 13.5957 7.07387 13.5819 7.63791C13.2166 8.26331 11.8861 8.6498 11.0706 9.2849L10.9497 9.38019C10.597 9.42246 10.2511 9.29323 10.0231 9.02977C9.98386 7.84774 11.7764 7.15008 12.747 7.00418Z" fill="#3F331C"/>
<path d="M49.1371 11.2839C50.0289 11.4712 51.844 12.2952 51.7863 13.4545C51.7713 13.7565 51.4385 13.9627 51.2153 14.1498C50.7099 13.8993 48.7779 12.4469 48.6191 11.8781C48.7797 11.4676 48.7346 11.5925 49.1371 11.2839Z" fill="#3F331C"/>
<path d="M23.0498 39.9762C23.282 39.7893 23.5599 39.5981 23.8188 39.4503C30.2515 35.7802 37.6022 35.2957 44.6374 37.0169C51.2246 38.9414 58.9314 44.2584 57.6051 52.1391C50.922 51.2145 41.8945 55.9303 46.1083 63.5893C46.6085 64.208 46.9825 64.6081 47.5308 65.1694C46.4616 65.5932 44.9843 66.1492 43.8555 66.3996C42.6154 66.8507 40.0222 67.227 38.7064 67.3171C35.6474 67.5362 32.5734 67.2275 29.6189 66.4042C29.0703 66.2557 28.2068 66.0541 27.795 65.6941C27.913 65.2941 27.9629 65.1416 27.9061 64.7281C27.7429 64.6252 27.3047 64.3672 27.1352 64.5877C25.1123 67.2203 20.5838 69.0102 17.3713 68.1307C16.0811 67.7776 18.582 65.0975 19.093 64.9049C19.8102 64.2838 22.6478 61.6035 21.2157 60.6831C20.8709 60.6972 20.6092 60.9434 20.3112 61.154C19.8002 60.9039 19.1489 59.7297 18.8248 59.2084C23.9873 55.9069 25.1672 49.4825 19.3095 46.2811C18.7886 46.0533 18.2941 45.9186 17.7505 45.7568C18.7394 43.5699 20.9874 41.1844 23.0498 39.9762Z" fill="#DA5700"/>
<path d="M23.0499 39.9762C23.2821 39.7893 23.56 39.5981 23.8189 39.4503C30.2515 35.7802 37.6023 35.2957 44.6375 37.0169C45.0909 37.516 45.6332 37.7208 46.2543 37.9646C49.3472 39.1782 52.1955 40.769 54.2294 43.479C54.8548 44.3121 56.228 46.4943 54.9382 47.353C54.2747 47.1893 53.3357 45.0076 52.765 44.3627C45.8413 36.5383 32.8374 36.1311 24.2295 41.2455C22.7675 42.1142 21.1541 43.2603 20.1796 44.649C19.6109 44.6849 19.0447 45.3796 18.6661 45.7822L18.3539 45.6862L18.2363 45.448C18.5475 43.4891 22.7499 40.7408 23.0499 39.9762Z" fill="#F06D16"/>
<path d="M46.1073 63.5894C46.6074 64.2081 46.9815 64.6082 47.5298 65.1695C46.4606 65.5933 44.9833 66.1493 43.8544 66.3997C42.6144 66.8508 40.0211 67.2271 38.7053 67.3172C35.6463 67.5363 32.5723 67.2275 29.6179 66.4043C29.0693 66.2558 28.2057 66.0542 27.7939 65.6942C27.912 65.2942 27.9618 65.1417 27.905 64.7282L27.967 64.4208C28.413 64.1604 31.9427 65.3056 32.931 65.4263C35.8775 65.7864 38.8874 65.6127 41.7569 64.8367C43.0324 64.4917 44.1428 64.0336 45.4428 63.7074L46.1073 63.5894Z" fill="#F06D16"/>
<path d="M46.1083 63.5894C46.6084 64.2081 46.9825 64.6082 47.5308 65.1695C46.4616 65.5933 44.9843 66.1493 43.8555 66.3997C44.43 65.6801 45.8502 65.4224 45.8779 64.3152C45.7646 63.9621 45.7433 63.9245 45.4438 63.7074L46.1083 63.5894Z" fill="#F06D16"/>
<path d="M28.4125 47.4835C30.0145 47.1944 31.553 48.2418 31.8716 49.8386C32.1904 51.4354 31.1718 52.9935 29.5816 53.3418C28.5264 53.5728 27.4286 53.216 26.7108 52.4085C25.993 51.601 25.7671 50.4689 26.1199 49.4477C26.4728 48.4264 27.3494 47.6754 28.4125 47.4835Z" fill="#FFF1D5"/>
<path d="M37.5457 47.4766C39.173 47.2258 40.6949 48.3433 40.9433 49.9712C41.1918 51.5991 40.0726 53.1199 38.4448 53.3662C36.8199 53.6121 35.303 52.4952 35.055 50.8704C34.807 49.2455 35.9216 47.7267 37.5457 47.4766Z" fill="#FFF1D5"/>
<path d="M46.5916 47.4765C48.1997 47.3059 49.6471 48.4576 49.8424 50.0634C50.0377 51.669 48.9087 53.1343 47.3067 53.3545C46.248 53.4999 45.1933 53.0634 44.5468 52.2126C43.9002 51.3616 43.7623 50.2282 44.1861 49.2469C44.6097 48.2658 45.529 47.589 46.5916 47.4765Z" fill="#FFF1D5"/>
<path d="M55.0664 48.3823C55.7954 48.5032 56.3284 48.4987 56.6579 49.1763C56.6961 49.6477 56.5051 50.0392 56.3389 50.4855C56.0387 50.7739 55.8674 50.9215 55.4756 50.7511C55.1358 50.2249 55.1199 49.0536 55.0664 48.3823Z" fill="#F06D16"/>
<path d="M69.8094 42.1313C74.5575 41.7054 76.7467 48.3723 72.4819 51.3098L71.5229 51.7722C70.5608 47.8649 69.6685 46.1413 67.5596 42.7861C68.4186 42.3904 68.8792 42.2645 69.8094 42.1313Z" fill="#FFF1D5"/>
</svg>
