<svg width="16" height="16" viewBox="0 0 16 16" fill="none" xmlns="http://www.w3.org/2000/svg">
<g clip-path="url(#clip0_1_63)">
<path d="M0.666687 6.68521C0.666687 3.36345 3.3508 0.666687 6.66669 0.666687C9.98257 0.666687 12.6667 3.36345 12.6667 6.68521C12.6667 10.007 9.98257 12.7037 6.66669 12.7037C5.89454 12.7037 5.15517 12.5571 4.47577 12.2897L2.22902 13.277C1.99573 13.3795 1.72441 13.3401 1.52996 13.1754C1.3355 13.0107 1.25193 12.7496 1.31464 12.5026L1.87263 10.3048C1.11571 9.29738 0.666687 8.04307 0.666687 6.68521Z" fill="#786237"/>
<path d="M14 8.82057C14 8.0498 13.9632 7.45592 13.728 6.94598L14.9387 6.38747C15.3095 7.19121 15.3334 8.0557 15.3334 8.82057C15.3334 10.151 14.8845 11.3786 14.1299 12.3641L14.6845 14.4991C14.7485 14.7454 14.6666 15.0067 14.4736 15.1725C14.2806 15.3383 14.01 15.3797 13.7761 15.2793L11.5245 14.3122C10.8448 14.5744 10.1054 14.718 9.33335 14.718V13.3847C10.0216 13.3847 10.6731 13.2394 11.259 12.9794C11.4287 12.9041 11.622 12.9029 11.7925 12.9762L13.0518 13.5171L12.7546 12.3728C12.6994 12.1604 12.7523 11.9346 12.8959 11.7687C13.586 10.9719 14 9.94364 14 8.82057Z" fill="#786237"/>
</g>
<defs>
<clipPath id="clip0_1_63">
<rect width="16" height="16" fill="white"/>
</clipPath>
</defs>
</svg>
