<svg width="16" height="16" viewBox="0 0 16 16" fill="none" xmlns="http://www.w3.org/2000/svg">
<g clip-path="url(#clip0_14_751)">
<path d="M0.666626 6.68521C0.666626 3.36345 3.35074 0.666687 6.66663 0.666687C9.98251 0.666687 12.6666 3.36345 12.6666 6.68521C12.6666 10.007 9.98251 12.7037 6.66663 12.7037C5.89447 12.7037 5.15511 12.5571 4.47571 12.2897L2.22896 13.277C1.99567 13.3795 1.72435 13.3401 1.5299 13.1754C1.33544 13.0107 1.25187 12.7496 1.31458 12.5026L1.87257 10.3048C1.11564 9.29738 0.666626 8.04307 0.666626 6.68521Z" fill="#786237"/>
<path d="M14 8.82057C14 8.0498 13.9632 7.45592 13.7279 6.94598L14.9387 6.38747C15.3094 7.19121 15.3333 8.0557 15.3333 8.82057C15.3333 10.151 14.8844 11.3786 14.1298 12.3641L14.6844 14.4991C14.7484 14.7454 14.6666 15.0067 14.4735 15.1725C14.2805 15.3383 14.0099 15.3797 13.7761 15.2793L11.5245 14.3122C10.8448 14.5744 10.1053 14.718 9.33329 14.718V13.3847C10.0215 13.3847 10.673 13.2394 11.259 12.9794C11.4286 12.9041 11.6219 12.9029 11.7925 12.9762L13.0518 13.5171L12.7545 12.3728C12.6994 12.1604 12.7522 11.9346 12.8959 11.7687C13.586 10.9719 14 9.94364 14 8.82057Z" fill="#786237"/>
</g>
<defs>
<clipPath id="clip0_14_751">
<rect width="16" height="16" fill="white"/>
</clipPath>
</defs>
</svg>
