<svg width="16" height="16" viewBox="0 0 16 16" fill="none" xmlns="http://www.w3.org/2000/svg">
<path fill-rule="evenodd" clip-rule="evenodd" d="M4.66634 3.99988C4.66634 2.15893 6.15873 0.66655 7.99967 0.66655C9.84062 0.66655 11.333 2.15893 11.333 3.99988H14.6663V5.33322H13.333L13.333 10.7136C13.333 11.6163 13.3331 12.3607 13.2538 12.9499C13.1707 13.5685 12.9894 14.1148 12.552 14.5522C12.1146 14.9896 11.5683 15.1709 10.9497 15.254C10.3606 15.3333 9.61615 15.3332 8.71342 15.3332H7.28598C6.38325 15.3332 5.6388 15.3333 5.04964 15.254C4.43108 15.1709 3.8848 14.9896 3.44739 14.5522C3.00999 14.1148 2.82867 13.5685 2.74551 12.9499C2.6663 12.3608 2.66632 11.6164 2.66634 10.7136L2.66634 5.33322H1.33301V3.99988H4.66634ZM7.99967 1.99988C9.10424 1.99988 9.99967 2.89531 9.99967 3.99988H5.99967C5.99967 2.89531 6.89511 1.99988 7.99967 1.99988ZM5.99967 7.33322V11.3332H7.33301V7.33322H5.99967ZM8.66634 7.33322V11.3332H9.99967V7.33322H8.66634Z" fill="white"/>
</svg>
