<svg width="16" height="16" viewBox="0 0 16 16" fill="none" xmlns="http://www.w3.org/2000/svg">
<path d="M14.1384 1.88562C12.9576 0.704793 11.0431 0.704795 9.86226 1.88562L9.13855 2.60933C8.8814 2.86647 8.87777 3.28225 9.13039 3.54384L9.14251 3.55639L12.4675 6.88134L12.4805 6.89391C12.7421 7.14625 13.1577 7.14249 13.4147 6.88547L14.1384 6.16176C15.3192 4.98094 15.3192 3.06644 14.1384 1.88562Z" fill="white"/>
<path d="M7.26908 4.47877C7.52361 4.22425 7.93738 4.22786 8.18743 4.48679L8.19559 4.49509L11.5289 7.82842L11.5375 7.83686C11.7964 8.08655 11.8001 8.50004 11.5458 8.75437L6.35715 13.9431C6.10949 14.1914 5.8901 14.4113 5.61171 14.5552L5.6046 14.5589C5.32565 14.7018 5.01917 14.7525 4.67321 14.8097L1.44327 15.3479C1.2309 15.3833 1.0145 15.314 0.862263 15.1618C0.710022 15.0095 0.640676 14.7931 0.676071 14.5808L1.21434 11.3508C1.27157 11.0048 1.32227 10.6984 1.46512 10.4194L1.46572 10.4182L1.46817 10.4135L1.46878 10.4123C1.61274 10.1339 1.83266 9.91454 2.08093 9.66687L7.26908 4.47877Z" fill="white"/>
</svg>
