<svg width="512" height="512" viewBox="0 0 512 512" fill="none" xmlns="http://www.w3.org/2000/svg">
<rect width="512" height="512" fill="#FFFAEF"/>
<path d="M71.8295 258.547C66.0073 251.299 63.3656 242.674 64.5425 233.505C65.5444 225.023 70.0971 217.315 77.13 212.198C94.0557 199.787 118.116 205.582 128.222 223.611C152.83 217.885 184.404 219.153 207.773 228.921C214.283 220.721 221.635 215.383 232.538 214.088C242.111 212.935 251.758 215.583 259.297 221.433C274.066 232.726 279.282 254.564 266.884 269.667C265.118 271.817 262.608 273.833 260.415 275.603C263.585 282.515 265.135 286.089 266.865 293.418C290.766 287.065 313.099 289.94 333.528 303.752C359.863 285.303 392.419 323.804 364.867 348.761C373.407 382.653 371.201 458.982 326.5 469.405C312.875 472.58 291.619 470.095 293.486 451.961L291.642 451.949C287.27 457.121 281.003 461.651 274.022 461.844C257.219 462.308 247.084 453.76 253.628 437.935C253.192 435.89 253.151 434.485 251.633 433.091L250.455 432.772C248.424 434.202 247.745 437.304 247.502 439.628C244.902 464.422 222.862 479.353 197.906 474.908C178.526 471.456 169.811 458.652 186.763 444.774C186.898 440.193 186.738 437.703 185.683 433.212C181.888 433.662 179.406 433.698 175.629 433.725C173.892 445.511 171.795 452.04 162.206 459.982C147.842 471.878 109.775 469.322 110.297 446.23C110.46 438.994 123.359 436.913 118.182 424.906C111.807 410.122 103.926 394.859 103.75 378.507C83.0987 368.152 65.2652 354.194 58.0988 331.782C50.458 307.886 57.6689 278.911 71.8295 258.547Z" fill="#3F331C"/>
<path d="M93.4698 211.948C104.466 211.246 114.965 215.6 120.15 225.512C119.689 227.033 119.424 227.439 119.747 228.929C120.653 229.844 122.472 230.956 123.711 230.654C134.391 228.056 143.399 226.489 154.519 226.246C168.256 225.921 181.959 227.699 195.128 231.515C213.092 236.715 207.074 239.836 218.556 227.07C227.976 216.598 247.963 218.359 258.189 228.818C263.743 234.479 266.708 242.084 266.413 249.903C266.002 261.491 261.072 264.237 252.923 270.976C250.891 272.657 253.922 278.204 255.012 280.689C257.563 286.315 259.446 292.052 260.498 298.134C260.973 300.877 259.131 304.835 262.687 306.568C264.008 307.212 264.267 307.191 265.541 306.725C266.972 305.176 267.302 302.809 267.805 300.736C268.206 300.464 268.63 300.151 269.098 300.02C291.416 293.816 316.628 297.529 334.288 312.791C336.516 314.717 340.394 318.234 343.449 316.778C345.111 312.307 340.864 310.668 341.302 308.336C349.321 300.103 370.99 313.217 368.924 325.427C367.657 332.918 369.151 335.222 363.025 341.336C361.717 338.562 358.13 330.139 355.807 329.471C346.574 327.314 353.909 337.232 355.257 340.515C364.802 363.775 363.653 390.877 359.416 415.093C356.238 430.92 351.928 448.651 337.457 458.443C329.28 463.953 316.676 466.222 307.298 462.607C296.424 458.415 306.364 450.396 308.126 444.076C310.21 436.602 307.673 429.591 304.011 423.001C302.553 420.661 299.249 416.364 296.203 416.379C294.202 417.637 293.885 419.108 292.845 421.416C283.083 427.353 257.314 429.865 246.566 424.435C244.92 423.603 246.051 423.624 243.952 423.989C240.398 426.948 240.979 437.305 239.673 442.478C236.929 453.351 231.459 462.661 220.236 466.854C211.504 470.116 201.311 470.37 192.636 466.924C177.787 460.622 188.639 456.536 193.311 447.807C196.754 441.373 192.403 425.259 186.134 420.914C185.598 420.543 185.161 420.928 184.559 421.193C183.132 422.719 182.797 424.672 182.25 426.67C177.001 428.719 163.238 425.752 158.062 423.824C154.29 422.417 145.853 416.031 142.545 416.858L142.089 417.914C144.058 426.644 159.538 431.602 167.629 433.614C164.84 448.469 160.109 458.084 143.129 460.204C135.395 461.17 118.381 459.939 117.351 449.756C116.959 443.053 127.475 440.513 126.592 433.275C124.556 416.589 113.381 402.996 110.809 386.024C109.534 377.608 112.809 380.33 112.563 375.828C105.592 371.049 97.9952 368.587 90.1951 362.807C75.2602 352.118 64.72 338.85 61.9618 320.254C59.1297 301.164 65.2743 276.357 77.8298 261.129C83.2525 254.552 74.2873 251.807 72.4011 246.162C66.7274 229.178 75.081 214.621 93.4698 211.948Z" fill="#FFFAEF"/>
<path d="M128.353 318.734C133.854 318.588 145.618 318.076 146.735 323.991C145.613 327.587 141.361 329.624 137.866 332.101C139.715 336.729 147.732 337.967 149.219 342.241C145.938 345.41 140.625 342.989 137.253 341.202C135.116 339.533 134.346 338.595 132.633 336.634C129.604 339.466 121.481 345.625 117.812 340.316C119.782 335.445 124.238 338.118 128.31 331.756L128.669 331.188C122.217 327.504 117.072 320.447 128.353 318.734Z" fill="#3F331C"/>
<path d="M183.331 300.205C189.933 298.734 196.883 301.526 198.909 306.463C200.936 311.399 197.283 316.64 190.721 318.209C184.066 319.8 176.958 317.013 174.903 312.006C172.848 306.999 176.634 301.696 183.331 300.205Z" fill="#3F331C"/>
<path d="M99.895 293.796C103.194 292.997 106.667 294.036 108.987 296.513C111.307 298.99 112.114 302.524 111.102 305.763C110.089 309.003 107.412 311.447 104.094 312.162C99.0529 313.248 94.0758 310.079 92.9264 305.052C91.7771 300.025 94.8834 295.008 99.895 293.796Z" fill="#3F331C"/>
<path d="M232.287 243.281C242.154 243.963 255.173 252.772 247.298 262.125C246.749 261.912 233.913 249.567 230.936 247.283C230.758 245.035 230.902 245.629 232.287 243.281Z" fill="#3F331C"/>
<path d="M99.4661 237.148C101.357 236.997 103.778 236.756 105.25 237.642C104.68 239.396 100.249 240.489 97.3893 241.989L95.4806 243.111C93.6552 243.324 94.2953 243.422 92.9735 242.886C91.4951 240.041 96.0628 238.252 99.4661 237.148Z" fill="#3F331C"/>
<path d="M287.041 431.719C288.003 435.958 286.999 443.779 284.8 447.902C282.786 451.733 279.234 454.631 274.945 455.943C269.142 457.726 264.197 456.717 258.949 454.192C252.75 448.2 258.408 445.767 257.419 435.863C267.477 436.041 277.535 434.909 287.041 431.719Z" fill="#FFFAEF"/>
<path d="M396.522 142.801C401.451 142.562 405.651 144.44 407.94 148.771C412.705 157.78 403.734 164.854 398.632 171.348C395.055 175.723 391.921 180.366 389.968 185.633C388.18 190.454 389.117 196.677 395.534 197.392C406.431 198.606 417.799 191.606 425.984 185.275C429.905 182.241 433.361 178.634 437.532 175.917C447.87 169.014 459.94 178.221 456.355 189.43C453.952 196.972 450.009 203.798 445.659 210.519C433.21 229.75 417.263 248.8 396.25 259.773C376.242 269.799 355.48 270.667 334.22 264.572C321.314 260.543 296.537 248.172 293.846 233.24C292.667 226.696 298.195 219.824 305.637 219.973C314.541 220.152 316.784 226.172 322.636 231.345C332.857 240.164 346.87 244.769 360.524 244.534C382.782 243.74 394.304 233.863 408.398 219.812C398.089 222.122 387.648 222.035 378.434 216.422C371.608 212.26 366.84 205.599 365.23 197.977C362.428 185.087 368.308 170.858 376.208 160.596C381.888 153.217 386.647 144.681 396.522 142.801Z" fill="#DA5700"/>
<path d="M183.562 36.02C188.439 35.7513 195.205 38.1952 196.158 42.929C198.263 53.3721 186.514 66.5366 181.565 75.9928C185.239 75.6308 189.071 75.4347 192.73 75.3867C200.145 75.288 207.551 74.5652 214.862 75.8035C224.021 77.3552 227.398 87.2009 222.028 93.5684C217.911 98.4509 210.266 97.8574 204.336 98.1508C192.511 98.2942 181.006 99.2064 169.21 100.091C165.043 109.901 154.43 135.716 172.231 138.532C181.174 139.947 195.46 127.249 203.764 136.969C209.958 144.218 204.807 151.113 197.912 155.53C188.249 160.373 175.83 162.997 164.94 160.892C155.894 159.133 147.98 154.14 142.942 147.014C134.347 134.635 136.77 118.588 140.05 105.016C131.523 106.85 118.605 112.203 110.787 107.972C105.994 105.379 103.218 97.61 107.05 93.6444C115.893 84.4909 138.017 81.8242 150.888 79.6424C156.648 68.7558 162.832 58.0626 169.427 47.5834C173.326 41.4 176.044 37.8705 183.562 36.02Z" fill="#DA5700"/>
<path d="M286.813 111.375C290.134 111.496 292.791 111.907 295.508 113.875C299.274 116.603 298.931 117.922 299.432 122.002L300.328 122.644C315.582 115.175 331.886 106.22 349.505 115.68C355.593 118.992 359.994 124.381 361.74 130.661C366.525 147.571 353.781 162.899 344.503 176.395C341.423 180.699 337.827 185.101 332.156 186.373C323.263 188.369 316.256 182.172 317.38 174.097C317.825 170.898 318.803 169.486 320.818 166.666C323.888 162.913 326.769 159.033 329.453 155.04C332 151.233 338.618 141.126 337.528 136.986C337.159 136.537 336.782 135.887 336.24 135.625C333.451 134.277 329.875 134.986 326.976 135.71C303.728 141.513 288.721 167.847 276.951 170.736C273.907 171.483 270.749 171.221 268.009 169.731C265.262 168.236 263.398 166.081 262.672 163.198C262 160.53 262.278 157.821 262.881 155.168C263.936 150.529 275.359 119.514 277.465 116.596C279.745 113.437 282.886 112.135 286.813 111.375Z" fill="#DA5700"/>
<path d="M244.377 98.8895C266.831 97.0788 250.309 127.689 247.686 138.394C245.187 148.599 246.367 157.465 236.527 161.567C212.355 163.452 231.73 119.09 235.68 107.899C237.355 103.153 240.093 100.526 244.377 98.8895Z" fill="#DA5700"/>
<path d="M262.341 61.3717C270.854 60.0087 279.133 64.4316 280.822 71.2445C282.51 78.0574 276.968 84.6735 268.449 86.0121C259.951 87.3476 251.707 82.9265 250.022 76.1307C248.337 69.3348 253.85 62.7316 262.341 61.3717Z" fill="#DA5700"/>
</svg>
