<svg width="32" height="39" viewBox="0 0 32 39" fill="none" xmlns="http://www.w3.org/2000/svg">
<path d="M32 38.7598H0V0H32V38.7598ZM25.6807 11.2832C24.3103 11.6283 22.4863 11.9836 20.9941 12.1631C19.4532 12.3484 17.8596 12.4424 16.2588 12.4424C14.645 12.4424 13.0389 12.3465 11.4863 12.1582C9.9833 11.9759 8.14625 11.6335 6.76758 11.2832V14.5312C8.27191 14.9135 9.48727 15.1146 11.1191 15.3125C12.3478 15.4615 13.607 15.5557 14.876 15.5957V17.4268C13.2339 17.3651 11.5369 17.2023 10.0332 16.9688V20.1719C11.6719 20.4264 13.2207 20.5627 14.876 20.6104V22.7568L14.7344 22.708C14.7315 22.7156 14.5666 23.1035 14.1816 23.5C13.5389 24.1617 12.6197 24.5805 11.4688 24.6416V27.9297C13.7533 27.8084 15.3859 26.8941 16.293 26.0674C17.2004 26.8944 18.8374 27.8094 21.123 27.9307V24.6426C20.0301 24.5846 19.1389 24.1974 18.502 23.5957C18.2887 23.3941 18.1363 23.1904 18.0312 23.0273V20.5996C19.5166 20.5453 20.9278 20.4175 22.4141 20.1895V16.9775C21.0502 17.1868 19.5261 17.3392 18.0312 17.4102V15.5811C19.1543 15.5356 20.2685 15.4484 21.3584 15.3174C22.978 15.1226 24.1856 14.9243 25.6807 14.5479V11.2832Z" fill="#F26A30"/>
</svg>
