<svg width="16" height="16" viewBox="0 0 16 16" fill="none" xmlns="http://www.w3.org/2000/svg">
<path d="M6 13.3697C5.99995 13.6524 5.9999 13.9272 6.03036 14.1538C6.06471 14.4092 6.14839 14.7008 6.39053 14.9429C6.63268 15.185 6.92419 15.2687 7.17966 15.3031C7.40627 15.3335 7.68102 15.3335 7.96374 15.3334H8.03628C8.31899 15.3335 8.59375 15.3335 8.82036 15.3031C9.07582 15.2687 9.36734 15.185 9.60949 14.9429C9.85163 14.7008 9.93531 14.4092 9.96966 14.1538C10.0001 13.9272 10.0001 13.6524 10 13.3697V13.2972C10.0001 13.0144 10.0001 12.7397 9.96966 12.5131C9.93531 12.2576 9.85163 11.9661 9.60949 11.7239C9.36734 11.4818 9.07582 11.3981 8.82036 11.3638C8.59375 11.3333 8.319 11.3334 8.03629 11.3334H7.96374C7.68103 11.3334 7.40627 11.3333 7.17966 11.3638C6.92419 11.3981 6.63268 11.4818 6.39053 11.7239C6.14839 11.9661 6.06471 12.2576 6.03036 12.5131C5.9999 12.7397 5.99995 13.0144 6 13.2972V13.3697Z" fill="#786237"/>
<path d="M6 8.03636C5.99995 8.31908 5.9999 8.59383 6.03036 8.82044C6.06471 9.07591 6.14839 9.36742 6.39053 9.60957C6.63268 9.85171 6.92419 9.93539 7.17966 9.96974C7.40627 10.0002 7.68101 10.0002 7.96372 10.0001H8.03628C8.31899 10.0002 8.59375 10.0002 8.82036 9.96974C9.07582 9.93539 9.36734 9.85171 9.60949 9.60957C9.85163 9.36742 9.93531 9.07591 9.96966 8.82044C10.0001 8.59383 10.0001 8.31908 10 8.03637V7.96382C10.0001 7.68111 10.0001 7.40635 9.96966 7.17974C9.93531 6.92428 9.85163 6.63276 9.60949 6.39062C9.36734 6.14847 9.07582 6.06479 8.82036 6.03044C8.59375 5.99998 8.319 6.00003 8.03629 6.00009H7.96374C7.68103 6.00003 7.40627 5.99998 7.17966 6.03044C6.92419 6.06479 6.63268 6.14847 6.39053 6.39062C6.14839 6.63276 6.06471 6.92428 6.03036 7.17974C5.9999 7.40635 5.99995 7.68111 6 7.96382V8.03636Z" fill="#786237"/>
<path d="M6 2.70303C5.99995 2.98574 5.9999 3.26049 6.03036 3.4871C6.06471 3.74257 6.14839 4.03409 6.39053 4.27623C6.63268 4.51838 6.9242 4.60206 7.17966 4.63641C7.40627 4.66687 7.68102 4.66682 7.96374 4.66676H8.03628C8.319 4.66682 8.59375 4.66687 8.82036 4.63641C9.07582 4.60206 9.36734 4.51838 9.60949 4.27623C9.85163 4.03409 9.93531 3.74257 9.96966 3.4871C10.0001 3.26049 10.0001 2.98574 10 2.70303V2.63048C10.0001 2.34777 10.0001 2.07302 9.96966 1.84641C9.93531 1.59094 9.85163 1.29943 9.60949 1.05728C9.36734 0.815138 9.07582 0.731456 8.82036 0.69711C8.59375 0.666643 8.319 0.666697 8.0363 0.666753H7.96372C7.68101 0.666697 7.40627 0.666643 7.17966 0.69711C6.9242 0.731456 6.63268 0.815138 6.39053 1.05728C6.14839 1.29943 6.06471 1.59094 6.03036 1.84641C5.9999 2.07302 5.99995 2.34777 6 2.63049V2.70303Z" fill="#786237"/>
</svg>
