<svg width="24" height="24" viewBox="0 0 24 24" fill="none" xmlns="http://www.w3.org/2000/svg">
<path d="M7.96449 1H8V3C7.05444 3 6.39534 3.00054 5.87945 3.03574C5.37254 3.07033 5.07734 3.135 4.85195 3.22836C4.11687 3.53284 3.53284 4.11687 3.22836 4.85195C3.135 5.07734 3.07033 5.37254 3.03574 5.87945C3.00054 6.39534 3 7.05444 3 8H1V7.96449C0.999993 7.06273 0.999988 6.33531 1.04038 5.74331C1.08191 5.13456 1.16948 4.59628 1.3806 4.08658C1.88807 2.86144 2.86144 1.88807 4.08658 1.3806C4.59628 1.16948 5.13456 1.08191 5.74331 1.04038C6.33531 0.999988 7.06273 0.999993 7.96449 1Z" fill="#BEB5A4"/>
<path d="M18.1206 3.03574C17.6047 3.00054 16.9456 3 16 3V1H16.0355C16.9373 0.999993 17.6647 0.999988 18.2567 1.04038C18.8654 1.08191 19.4037 1.16948 19.9134 1.3806C21.1386 1.88807 22.1119 2.86144 22.6194 4.08658C22.8305 4.59628 22.9181 5.13456 22.9596 5.74331C23 6.33531 23 7.06272 23 7.96448V8H21C21 7.05444 20.9995 6.39534 20.9643 5.87945C20.9297 5.37254 20.865 5.07734 20.7716 4.85195C20.4672 4.11687 19.8831 3.53284 19.1481 3.22836C18.9227 3.135 18.6275 3.07033 18.1206 3.03574Z" fill="#BEB5A4"/>
<path d="M1 16.0355V16H3C3 16.9456 3.00054 17.6047 3.03574 18.1206C3.07033 18.6275 3.135 18.9227 3.22836 19.1481C3.53284 19.8831 4.11687 20.4672 4.85195 20.7716C5.07734 20.865 5.37254 20.9297 5.87945 20.9643C6.39534 20.9995 7.05444 21 8 21V23H7.96448C7.06272 23 6.33531 23 5.74331 22.9596C5.13456 22.9181 4.59628 22.8305 4.08658 22.6194C2.86144 22.1119 1.88807 21.1386 1.3806 19.9134C1.16948 19.4037 1.08191 18.8654 1.04038 18.2567C0.999988 17.6647 0.999993 16.9373 1 16.0355Z" fill="#BEB5A4"/>
<path d="M20.9643 18.1206C20.9995 17.6047 21 16.9456 21 16H23V16.0355C23 16.9373 23 17.6647 22.9596 18.2567C22.9181 18.8654 22.8305 19.4037 22.6194 19.9134C22.1119 21.1386 21.1386 22.1119 19.9134 22.6194C19.4037 22.8305 18.8654 22.9181 18.2567 22.9596C17.6647 23 16.9373 23 16.0355 23H16V21C16.9456 21 17.6047 20.9995 18.1206 20.9643C18.6275 20.9297 18.9227 20.865 19.1481 20.7716C19.8831 20.4672 20.4672 19.8831 20.7716 19.1481C20.865 18.9227 20.9297 18.6275 20.9643 18.1206Z" fill="#BEB5A4"/>
<path d="M12 6C10.067 6 8.5 7.567 8.5 9.5C8.5 11.433 10.067 13 12 13C13.933 13 15.5 11.433 15.5 9.5C15.5 7.567 13.933 6 12 6Z" fill="#BEB5A4"/>
<path d="M8.80798 17.5888C9.50194 16.6361 10.6658 16 11.9997 16C13.3336 16 14.4974 16.6361 15.1914 17.5888L16.808 16.4112C15.7406 14.9459 13.978 14 11.9997 14C10.0214 14 8.25881 14.9459 7.19141 16.4112L8.80798 17.5888Z" fill="#BEB5A4"/>
</svg>
