<svg width="77" height="82" viewBox="0 0 77 82" fill="none" xmlns="http://www.w3.org/2000/svg">
<path d="M11.352 0.0570799C14.6506 -0.364681 17.7728 1.59653 19.3345 4.42883C27.3224 2.52397 32.928 3.16556 40.386 6.36372C40.9424 5.497 41.6559 4.7416 42.4895 4.1366C44.5278 2.6616 47.285 2.19204 49.7357 2.62532C52.1325 3.04802 54.2633 4.40547 55.6595 6.39922C58.1518 9.96278 57.7433 14.8298 54.0553 17.4028C54.5082 18.5423 55.0489 19.5411 55.4637 20.7254C56.858 24.7062 57.1082 28.6321 55.9553 32.6831C60.4479 34.3566 63.4268 36.5113 66.7763 39.8259C68.8875 38.3341 72.1803 38.2859 73.9925 40.115C77.4363 43.5919 76.9646 49.0055 72.3936 51.0612C73.6266 59.007 73.4351 69.5181 67.5408 75.7258C63.8038 79.6623 55.3224 80.8714 51.0342 77.1536C50.2155 76.4438 50.1056 75.439 50.1494 74.4399C50.4103 73.6847 50.6097 73.3668 51.1958 72.8366C51.9641 72.1413 53.7571 70.2958 53.1291 69.1621C52.4318 68.8183 51.3798 69.3763 50.6379 69.5499C48.484 70.0539 46.2998 70.0741 44.1013 70.0336C44.0925 72.0579 43.662 74.0929 42.0805 75.6988C38.846 78.9834 31.2723 79.5376 27.662 76.5073C26.8968 75.8651 26.7867 75.0189 26.804 74.0613C22.159 76.5308 17.361 79.4037 12.4766 81.4322C11.9357 81.6569 10.9503 80.9815 11.0076 80.4458C11.5279 75.5668 12.7377 70.6372 13.9427 65.8837C14.0893 65.3095 17.4094 60.6734 17.9247 59.9258C15.969 59.4721 14.1862 58.4896 12.9335 56.8922C9.66124 52.7196 10.6211 47.5271 12.9123 43.2059C11.1434 42.2427 9.66358 41.4566 8.04161 40.2451C-1.73409 32.9432 -2.30796 21.6703 4.75191 12.2196C0.70244 6.77817 5.07932 0.510757 11.352 0.0570799Z" fill="#3F331C"/>
<path d="M10.8845 1.67059C11.8435 1.59461 12.7692 1.61765 13.7167 1.82721C15.2374 2.16365 16.7745 3.06743 17.493 4.49666C17.7762 5.05963 17.8388 5.51439 18.2007 6.09137C18.7992 6.41505 21.3531 5.51595 22.2462 5.37879C27.7764 4.52935 33.4919 5.03736 38.6363 7.32038C39.3568 7.64017 40.0655 8.18414 40.8323 8.30013C41.8645 8.00479 41.6602 6.8885 42.5743 6.07456C45.6974 3.29318 50.7794 3.3936 53.6604 6.47234C54.9808 7.85813 55.6844 9.7197 55.6108 11.6327C55.5465 13.2682 54.9393 14.9301 53.4798 15.807C53.3097 15.948 52.0431 16.8105 52.1233 17.0249C52.8576 18.9883 54.0777 20.9833 54.5304 23.0615C55.0487 25.4407 55.2032 27.9216 54.8859 30.3212C54.7489 31.3572 54.2178 32.4156 54.1792 33.4746C54.2247 34.1038 55.0641 34.0827 55.4535 34.2195C64.2071 37.2952 70.4583 44.8758 71.2368 54.2033C71.7801 60.7343 71.3302 68.1782 67.2776 73.6026C65.4901 75.9961 62.5585 77.3769 59.6875 77.6439C57.6739 77.8739 52.3436 77.7715 51.6617 75.1386C51.4914 74.4814 53.1401 73.2369 53.65 72.632C54.8399 71.2208 54.8013 69.9945 54.6662 68.2288C55.0733 67.8802 55.3036 67.6134 55.2323 67.0548C54.9313 66.726 54.5368 66.6434 54.1504 66.798C49.7595 68.5548 45.5025 68.9564 40.8754 67.9034C40.5588 67.8313 40.4384 67.9673 40.2061 68.1421C40.0274 68.6146 40.0479 68.4105 40.1381 68.9171C40.5477 69.5383 41.6623 69.6434 42.4188 69.8087C42.6316 72.3206 41.9752 74.3083 39.4361 75.7137C36.9108 77.1115 30.456 77.6994 28.4348 74.9202C27.7449 73.9716 30.0127 73.0897 30.1987 72.0298C30.3915 70.9308 30.2342 70.8925 29.6761 69.8464L34.8352 62.0852L37.8681 57.49C38.6221 57.8724 39.5114 58.2775 40.3255 58.4994C41.6022 58.8473 45.6847 59.7011 46.1366 57.8533C45.5732 56.9633 44.7206 57.3582 43.8394 57.4112C39.8996 57.6491 34.2613 54.2939 35.4037 49.7056C36.6541 44.6848 42.7722 44.4805 46.8176 45.8898C47.3859 46.0878 48.0852 46.0295 48.1489 45.2826C47.8778 44.6322 47.1715 44.3609 46.5579 44.0508C47.7935 42.0057 49.2392 40.0111 50.5389 38.002C51.2627 36.8827 52.321 35.4568 52.7915 34.2317C53.1222 33.3794 53.2203 32.4548 53.076 31.5521C52.392 27.3731 44.5676 23.2536 41.3584 26.7335C39.5538 28.6904 37.5057 31.9114 35.9283 34.1473L25.5128 48.849C24.7345 48.1482 22.4345 46.4629 21.4729 47.4179C21.352 48.7595 24.3948 49.2655 25.0845 50.8533C27.2341 55.8028 22.1347 59.611 17.5299 58.1766C11.3895 56.2641 11.4831 48.3537 14.4026 43.8553C14.5095 43.6904 15.3842 43.9277 15.503 43.1243C15.4444 42.9949 15.3275 42.6783 15.2378 42.6152C14.439 42.0535 13.2692 41.5595 12.3837 41.1131C11.4309 40.6429 10.5203 40.0915 9.66183 39.4651C0.417965 32.8588 -1.02091 22.1852 6.03382 13.1925C6.12101 13.0813 6.79934 12.0206 6.68943 11.9168C2.47213 7.93224 5.67402 2.47612 10.8845 1.67059Z" fill="#FFFAEF"/>
<path d="M19.2041 27.3527C20.0303 27.3005 21.3398 27.2305 22.1273 27.4887C26.137 28.804 22.1312 29.9682 21.7352 30.9091C21.8615 32.7577 23.6516 32.8991 24.2155 33.8739L24.1111 34.129C23.9755 34.1804 23.8383 34.2277 23.6999 34.2709C22.9302 34.5075 22.4586 34.1941 21.7849 33.8373C21.2087 33.4208 20.9911 33.0551 20.6266 32.4642C20.072 33.0003 19.3646 33.5346 18.5787 33.6283C17.9221 33.7068 17.1505 33.4711 17.2161 32.6875C18.33 31.3659 18.9472 33.1076 20.1142 30.4826C18.9959 29.7523 17.0713 28.3341 19.2041 27.3527Z" fill="#3F331C"/>
<path d="M33.4225 23.6359C34.2235 23.4933 35.0388 23.7952 35.554 24.425C36.0692 25.0547 36.2036 25.914 35.9053 26.6711C35.607 27.4281 34.9227 27.9646 34.1165 28.0735C32.9056 28.237 31.786 27.4022 31.5972 26.1945C31.4085 24.987 32.2195 23.85 33.4225 23.6359Z" fill="#3F331C"/>
<path d="M11.9724 21.0599C13.1829 20.8236 14.3546 21.6171 14.5847 22.8291C14.8148 24.041 14.0155 25.209 12.8027 25.4329C11.5986 25.6554 10.4412 24.8628 10.2127 23.6596C9.98428 22.4563 10.7707 21.2945 11.9724 21.0599Z" fill="#3F331C"/>
<path d="M47.6714 10.0245C48.9352 10.0667 51.2563 11.209 49.996 12.7757C49.5645 12.6689 47.4984 11.2045 47.3204 10.7519C47.3885 10.2824 47.3345 10.4589 47.6714 10.0245Z" fill="#3F331C"/>
<path d="M11.2972 7.13063C11.5756 7.11242 11.7826 7.20131 12.0509 7.28321C12.3084 7.54289 12.252 7.39437 12.2657 7.72598C11.9961 8.48372 10.8225 8.62431 10.0205 9.40322L9.91918 9.50255C9.48154 9.49819 9.22637 9.39668 8.97244 9.0456C8.96481 8.01541 10.461 7.37289 11.2972 7.13063Z" fill="#3F331C"/>
<path d="M40.8154 36.4933C42.0626 37.1321 43.2933 38.0485 44.5012 38.8162C43.4607 40.3712 42.3819 41.9417 41.4195 43.5436C36.1385 43.9971 31.9564 48.543 34.3621 53.794L23.3728 70.0334C23.2618 69.9451 23.1458 69.8634 23.0256 69.7883C22.0161 69.162 21.3267 69.2808 20.2114 69.5285C19.9677 68.7606 19.7719 68.288 19.3416 67.6157C21.0739 64.9249 23.2584 61.97 25.0882 59.3021L40.8154 36.4933Z" fill="#DA5700"/>
<path d="M37.4351 34.6996C38.2994 35.1287 39.1568 35.5715 40.007 36.0277C36.1012 41.7508 31.8851 47.9464 27.8425 53.5509L27.0208 54.6856C27.3389 52.8654 27.1855 51.8598 26.4818 50.194C27.3924 48.6788 29.1446 46.3553 30.205 44.8485C32.5829 41.4428 34.9932 38.0597 37.4351 34.6996Z" fill="#DA5700"/>
<path d="M15.0366 67.7004C15.3079 67.9518 15.5907 68.1696 15.8796 68.4002C19.6244 67.7441 17.7744 69.516 19.1317 70.9398C19.8379 71.6804 22.8841 69.1883 22.7275 72.8668C22.6898 73.7494 23.7648 73.2026 24.2 73.546C23.7061 73.962 21.5514 75.147 20.8766 75.5345C19.2858 76.3858 17.683 77.2145 16.0688 78.0204C15.4459 76.1845 15.0086 76.2039 13.3041 75.5379C13.4215 74.6994 13.8115 73.2611 14.0142 72.3977C14.3776 70.8369 14.7184 69.271 15.0366 67.7004Z" fill="#FFFAEF"/>
<path d="M44.4194 27.0273C47.0815 26.9102 50.8891 28.9742 51.5078 31.7543C51.8912 33.4765 50.5437 35.08 49.64 36.4424L48.3847 35.4997C45.6115 33.2775 43.489 32.15 40.3673 30.5461C40.483 30.3436 40.6072 30.1459 40.7394 29.9537C41.8828 28.2815 42.4054 27.4098 44.4194 27.0273Z" fill="#DA5700"/>
<path d="M44.465 28.044C47.4542 27.9382 49.7612 29.8272 50.5851 32.6306C50.2387 33.3282 49.8194 33.9872 49.3341 34.5966C48.9737 34.5611 49.1277 34.6255 48.8501 34.4105C48.7494 33.7996 49.2778 33.0299 49.3505 32.3878C49.4906 31.149 47.3855 29.6251 46.379 29.2098C45.7354 28.9442 44.5093 29.09 44.1281 28.6174C44.1715 28.249 44.1497 28.3707 44.465 28.044Z" fill="#F76E12"/>
<path d="M43.8417 29.9318C45.1235 30.4739 47.8117 31.5624 48.4308 32.867L48.4116 33.139C48.2715 33.2494 48.2154 33.3455 48.0766 33.2804C46.7861 32.6769 45.2715 31.5684 43.9826 30.8882L43.8417 29.9318Z" fill="#F76E12"/>
<path d="M43.9826 30.8882C43.2363 30.5591 42.3382 30.3195 42.2708 29.3994C42.5446 28.8087 42.958 28.2862 43.6442 28.4987C43.9119 29.0365 43.2374 29.2342 43.4429 29.8151L43.8417 29.9318L43.9826 30.8882Z" fill="#F76E12"/>
<path d="M34.8399 54.7426C35.2513 55.0996 35.9106 55.942 36.5654 56.5221C33.3752 61.6281 29.2901 67.7794 25.8098 72.6868C25.1561 72.2058 24.9766 72.1276 24.2168 71.82L23.9126 70.7012C24.9436 69.4593 26.7147 66.6886 27.68 65.2673L34.8399 54.7426Z" fill="#DA5700"/>
<path d="M69.5133 40.3207C69.8091 40.3032 70.1843 40.2821 70.477 40.3032C71.6244 40.3957 72.6862 40.9442 73.4258 41.8259C75.171 43.918 74.9998 47.3491 72.789 49.1084L72.1787 49.3922C71.7864 49.3089 71.6338 48.482 71.503 48.0284C70.7946 45.5718 69.3031 43.0379 67.7213 41.0291C68.4577 40.6602 68.7255 40.5134 69.5133 40.3207Z" fill="#FFFAEF"/>
<path d="M24.1604 58.6555L24.1797 58.7872C22.8068 61.1923 20.3061 64.5551 18.6094 66.8585C18.6179 66.847 16.3983 66.8241 16.0807 66.8621C15.8477 66.6146 15.7689 66.507 15.5802 66.2233C15.683 65.7404 19.1842 60.7952 19.6809 60.0746C21.3953 60.0053 22.7279 59.5899 24.1604 58.6555Z" fill="#DA5700"/>
<path d="M39.5233 31.7617C43.2846 33.7356 45.4836 34.9712 48.8556 37.7403C48.4672 38.3026 48.1156 38.884 47.7568 39.4653C44.6168 36.9402 41.8577 35.2478 38.2982 33.4028L39.5233 31.7617Z" fill="#F76E12"/>
<path d="M45.1424 39.3427L46.9125 40.6754C46.3559 41.5829 45.744 42.6318 45.0595 43.4535C44.801 43.7637 44.7079 43.6922 44.3221 43.6992C43.6559 43.6025 42.9324 43.5323 42.2594 43.4538C43.2511 42.1828 44.2491 40.6882 45.1424 39.3427Z" fill="#DA5700"/>
</svg>
