<svg width="16" height="16" viewBox="0 0 16 16" fill="none" xmlns="http://www.w3.org/2000/svg">
<path d="M14.1382 1.88562C12.9573 0.704793 11.0428 0.704795 9.86202 1.88562L9.1383 2.60933C8.88116 2.86647 8.87753 3.28225 9.13015 3.54384L9.14227 3.55639L12.4672 6.88134L12.4803 6.89391C12.7419 7.14625 13.1574 7.1425 13.4145 6.88547L14.1382 6.16176C15.319 4.98094 15.319 3.06644 14.1382 1.88562Z" fill="white"/>
<path d="M7.26884 4.47877C7.52337 4.22425 7.93714 4.22786 8.18719 4.48679L8.19534 4.49509L11.5287 7.82842L11.5373 7.83686C11.7962 8.08655 11.7999 8.50004 11.5456 8.75437L6.35691 13.9431C6.10924 14.1914 5.88985 14.4113 5.61147 14.5552L5.60435 14.5589C5.3254 14.7018 5.01893 14.7525 4.67296 14.8097L1.44302 15.348C1.23065 15.3833 1.01426 15.314 0.862019 15.1618C0.709778 15.0095 0.640432 14.7931 0.675827 14.5808L1.21409 11.3508C1.27133 11.0048 1.32202 10.6984 1.46487 10.4194L1.46548 10.4182L1.46792 10.4135L1.46854 10.4123C1.6125 10.1339 1.83242 9.91454 2.08068 9.66687L7.26884 4.47877Z" fill="white"/>
<path d="M15.3334 14H7.33341V15.3333H15.3334V14Z" fill="white"/>
</svg>
