<svg preserveAspectRatio="none" width="100%" height="100%" overflow="visible" style="display: block;" viewBox="0 0 22 22" fill="none" xmlns="http://www.w3.org/2000/svg">
<g id="Shape">
<path d="M6.96449 1.73261e-07H7V2C6.05444 2 5.39534 2.00054 4.87945 2.03574C4.37254 2.07033 4.07734 2.135 3.85195 2.22836C3.11687 2.53284 2.53284 3.11687 2.22836 3.85195C2.135 4.07734 2.07033 4.37254 2.03574 4.87945C2.00054 5.39534 2 6.05444 2 7H1.73261e-07V6.96449C-6.5607e-06 6.06273 -1.20439e-05 5.33531 0.0403804 4.74331C0.0819145 4.13456 0.169479 3.59628 0.380603 3.08658C0.888073 1.86144 1.86144 0.888073 3.08658 0.380603C3.59628 0.169479 4.13456 0.0819145 4.74331 0.0403804C5.33531 -1.20439e-05 6.06273 -6.5607e-06 6.96449 1.73261e-07Z" fill="var(--fill-0, #BEB5A4)"/>
<path d="M17.1206 2.03574C16.6047 2.00054 15.9456 2 15 2V1.73261e-07H15.0355C15.9373 -6.5607e-06 16.6647 -1.20439e-05 17.2567 0.0403804C17.8654 0.0819145 18.4037 0.169479 18.9134 0.380603C20.1386 0.888073 21.1119 1.86144 21.6194 3.08658C21.8305 3.59628 21.9181 4.13456 21.9596 4.74331C22 5.33531 22 6.06272 22 6.96448V7H20C20 6.05444 19.9995 5.39534 19.9643 4.87945C19.9297 4.37254 19.865 4.07734 19.7716 3.85195C19.4672 3.11687 18.8831 2.53284 18.1481 2.22836C17.9227 2.135 17.6275 2.07033 17.1206 2.03574Z" fill="var(--fill-0, #BEB5A4)"/>
<path d="M1.73261e-07 15.0355V15H2C2 15.9456 2.00054 16.6047 2.03574 17.1206C2.07033 17.6275 2.135 17.9227 2.22836 18.1481C2.53284 18.8831 3.11687 19.4672 3.85195 19.7716C4.07734 19.865 4.37254 19.9297 4.87945 19.9643C5.39534 19.9995 6.05444 20 7 20V22H6.96448C6.06272 22 5.33531 22 4.74331 21.9596C4.13456 21.9181 3.59628 21.8305 3.08658 21.6194C1.86144 21.1119 0.888073 20.1386 0.380603 18.9134C0.169479 18.4037 0.0819145 17.8654 0.0403804 17.2567C-1.20439e-05 16.6647 -6.5607e-06 15.9373 1.73261e-07 15.0355Z" fill="var(--fill-0, #BEB5A4)"/>
<path d="M19.9643 17.1206C19.9995 16.6047 20 15.9456 20 15H22V15.0355C22 15.9373 22 16.6647 21.9596 17.2567C21.9181 17.8654 21.8305 18.4037 21.6194 18.9134C21.1119 20.1386 20.1386 21.1119 18.9134 21.6194C18.4037 21.8305 17.8654 21.9181 17.2567 21.9596C16.6647 22 15.9373 22 15.0355 22H15V20C15.9456 20 16.6047 19.9995 17.1206 19.9643C17.6275 19.9297 17.9227 19.865 18.1481 19.7716C18.8831 19.4672 19.4672 18.8831 19.7716 18.1481C19.865 17.9227 19.9297 17.6275 19.9643 17.1206Z" fill="var(--fill-0, #BEB5A4)"/>
<path d="M11 5C9.067 5 7.5 6.567 7.5 8.5C7.5 10.433 9.067 12 11 12C12.933 12 14.5 10.433 14.5 8.5C14.5 6.567 12.933 5 11 5Z" fill="var(--fill-0, #BEB5A4)"/>
<path d="M7.80798 16.5888C8.50194 15.6361 9.66576 15 10.9997 15C12.3336 15 13.4974 15.6361 14.1914 16.5888L15.808 15.4112C14.7406 13.9459 12.978 13 10.9997 13C9.02137 13 7.25881 13.9459 6.19141 15.4112L7.80798 16.5888Z" fill="var(--fill-0, #BEB5A4)"/>
</g>
</svg>
