<svg preserveAspectRatio="none" width="100%" height="100%" overflow="visible" style="display: block;" viewBox="0 0 50 54.6875" fill="none" xmlns="http://www.w3.org/2000/svg">
<g id="tiny-logo">
<path id="Vector" d="M2.09322 27.6799C1.36906 26.7785 1.0405 25.7057 1.18688 24.5653C1.31149 23.5103 1.87775 22.5517 2.75249 21.9152C4.85768 20.3715 7.85019 21.0923 9.10723 23.3347C12.1679 22.6225 16.095 22.7802 19.0016 23.9952C19.8113 22.9753 20.7257 22.3114 22.0818 22.1502C23.2725 22.0069 24.4724 22.3362 25.4101 23.0638C27.247 24.4684 27.8957 27.1846 26.3537 29.0631C26.1341 29.3305 25.8219 29.5812 25.5491 29.8013C25.9434 30.6611 26.1362 31.1056 26.3514 32.0172C29.3241 31.227 32.1018 31.5845 34.6428 33.3025C37.9182 31.0079 41.9675 35.7965 38.5406 38.9006C39.6028 43.1161 39.3285 52.6098 33.7686 53.906C32.0741 54.301 29.4303 53.9919 29.6624 51.7364L29.4331 51.7349C28.8894 52.3782 28.1099 52.9417 27.2415 52.9657C25.1516 53.0234 23.8911 51.9602 24.705 49.9919C24.6508 49.7376 24.6456 49.5628 24.4568 49.3894L24.3103 49.3497C24.0577 49.5276 23.9733 49.9135 23.943 50.2025C23.6197 53.2863 20.8784 55.1434 17.7744 54.5905C15.3639 54.1612 14.28 52.5687 16.3884 50.8426C16.4053 50.2728 16.3853 49.963 16.2541 49.4045C15.7821 49.4605 15.4734 49.4649 15.0036 49.4683C14.7875 50.9343 14.5268 51.7463 13.334 52.7341C11.5475 54.2136 6.81282 53.8958 6.87771 51.0237C6.89806 50.1237 8.50241 49.8647 7.85849 48.3714C7.06551 46.5325 6.08535 44.6342 6.0634 42.6004C3.49486 41.3125 1.27677 39.5763 0.385422 36.7888C-0.564924 33.8167 0.331955 30.2128 2.09322 27.6799Z" fill="var(--fill-0, #3F331C)"/>
<path id="Vector_2" d="M29.6875 50.7542C29.6875 50.2078 29.6875 49.7824 29.6875 49.2188C29.6875 49.6824 29.6875 49.9387 29.6875 50.4594V50.7813V50.7542Z" fill="var(--fill-0, #FCFCFC)"/>
<path id="Vector_3" d="M4.7848 21.8841C6.15243 21.7968 7.45834 22.3383 8.10322 23.5711C8.04583 23.7604 8.0129 23.8108 8.05305 23.9962C8.16584 24.1099 8.39205 24.2482 8.54616 24.2107C9.87445 23.8876 10.9948 23.6926 12.378 23.6624C14.0865 23.6221 15.7909 23.8432 17.4288 24.3178C19.6631 24.9646 18.9147 25.3528 20.3428 23.7649C21.5145 22.4624 24.0004 22.6814 25.2723 23.9824C25.963 24.6865 26.3319 25.6323 26.2951 26.6049C26.244 28.0462 25.6308 28.3876 24.6173 29.2259C24.3645 29.435 24.7415 30.1248 24.8771 30.434C25.1945 31.1337 25.4286 31.8472 25.5594 32.6037C25.6185 32.9449 25.3894 33.4372 25.8317 33.6527C25.9961 33.7328 26.0282 33.7302 26.1867 33.6723C26.3647 33.4795 26.4057 33.1852 26.4683 32.9273C26.5181 32.8935 26.5709 32.8546 26.6291 32.8383C29.405 32.0667 32.5409 32.5285 34.7373 34.4268C35.0144 34.6663 35.4967 35.1037 35.8768 34.9227C36.0834 34.3666 35.5553 34.1627 35.6097 33.8726C36.6071 32.8486 39.3023 34.4798 39.0453 35.9984C38.8877 36.9301 39.0736 37.2167 38.3116 37.9771C38.1489 37.632 37.7028 36.5844 37.4138 36.5013C36.2654 36.2331 37.1777 37.4667 37.3454 37.875C38.5326 40.768 38.3897 44.1389 37.8627 47.1509C37.4675 49.1194 36.9313 51.3247 35.1315 52.5427C34.1144 53.228 32.5468 53.5102 31.3804 53.0606C30.0278 52.5391 31.2642 51.5418 31.4834 50.7557C31.7425 49.8261 31.427 48.9541 30.9716 48.1344C30.7902 47.8434 30.3793 47.3089 30.0004 47.3109C29.7515 47.4673 29.7121 47.6502 29.5827 47.9373C28.3685 48.6758 25.1634 48.9881 23.8266 48.3128C23.6219 48.2094 23.7626 48.2119 23.5015 48.2574C23.0595 48.6254 23.1317 49.9136 22.9693 50.557C22.628 51.9093 21.9476 53.0673 20.5517 53.5888C19.4656 53.9946 18.1979 54.0262 17.1189 53.5976C15.272 52.8137 16.6217 52.3055 17.2028 51.2197C17.6311 50.4196 17.0899 48.4153 16.3102 47.8749C16.2436 47.8287 16.1892 47.8766 16.1144 47.9096C15.9369 48.0993 15.8951 48.3423 15.8271 48.5908C15.1742 48.8457 13.4625 48.4766 12.8187 48.2368C12.3496 48.0619 11.3001 47.2675 10.8887 47.3704L10.832 47.5017C11.0769 48.5876 13.0023 49.2043 14.0085 49.4545C13.6617 51.3021 13.0732 52.498 10.9613 52.7617C9.99933 52.8818 7.88323 52.7288 7.75511 51.4622C7.70638 50.6284 9.01428 50.3126 8.90447 49.4123C8.65119 47.3369 7.26136 45.6463 6.94141 43.5353C6.78278 42.4885 7.19017 42.8272 7.15959 42.2672C6.29256 41.6727 5.34766 41.3666 4.3775 40.6477C2.51992 39.3182 1.20896 37.6678 0.865901 35.355C0.51364 32.9807 1.2779 29.8951 2.83952 28.0012C3.514 27.1831 2.39892 26.8416 2.16432 26.1396C1.45863 24.0271 2.49763 22.2166 4.7848 21.8841Z" fill="var(--fill-0, #FFFAEF)"/>
<path id="Vector_4" d="M9.12345 35.1659C9.80774 35.1477 11.2709 35.0841 11.4099 35.8198C11.2703 36.2671 10.7414 36.5205 10.3067 36.8285C10.5367 37.4041 11.5338 37.558 11.7188 38.0897C11.3107 38.4839 10.6499 38.1827 10.2304 37.9604C9.96468 37.7529 9.86885 37.6361 9.65579 37.3923C9.27909 37.7446 8.26872 38.5105 7.8125 37.8502C8.05747 37.2445 8.61171 37.5769 9.11815 36.7856L9.16286 36.715C8.36035 36.2567 7.72038 35.379 9.12345 35.1659Z" fill="var(--fill-0, #3F331C)"/>
<path id="Vector_5" d="M15.9616 32.8613C16.7827 32.6783 17.6471 33.0256 17.8992 33.6397C18.1513 34.2536 17.6968 34.9054 16.8807 35.1006C16.0529 35.2985 15.1689 34.9518 14.9133 34.329C14.6577 33.7063 15.1286 33.0467 15.9616 32.8613Z" fill="var(--fill-0, #3F331C)"/>
<path id="Vector_6" d="M5.58396 32.0641C5.99434 31.9649 6.42624 32.094 6.71482 32.4021C7.00332 32.7102 7.10378 33.1498 6.97788 33.5527C6.85189 33.9555 6.51892 34.2596 6.10622 34.3485C5.47922 34.4836 4.86017 34.0894 4.71722 33.4642C4.57427 32.8389 4.96062 32.2149 5.58396 32.0641Z" fill="var(--fill-0, #3F331C)"/>
<path id="Vector_7" d="M22.0507 25.7813C23.2778 25.866 24.8971 26.9617 23.9177 28.125C23.8493 28.0985 22.2528 26.5631 21.8826 26.279C21.8605 25.9994 21.8784 26.0733 22.0507 25.7813Z" fill="var(--fill-0, #3F331C)"/>
<path id="Vector_8" d="M5.53061 25.0184C5.76584 24.9996 6.06687 24.9697 6.25 25.0798C6.17909 25.298 5.62802 25.4339 5.2723 25.6205L5.0349 25.76C4.80787 25.7865 4.88747 25.7988 4.72307 25.7321C4.53919 25.3782 5.10732 25.1557 5.53061 25.0184Z" fill="var(--fill-0, #3F331C)"/>
<path id="Vector_9" d="M28.8608 49.2188C28.9805 49.7461 28.8556 50.7188 28.5821 51.2315C28.3316 51.708 27.8898 52.0685 27.3563 52.2317C26.6346 52.4534 26.0195 52.3279 25.3668 52.014C24.5957 51.2687 25.2995 50.9661 25.1765 49.7342C26.4275 49.7564 27.6785 49.6155 28.8608 49.2188Z" fill="var(--fill-0, #FFFAEF)"/>
<path id="Vector_10" d="M42.4778 13.2838C43.0909 13.254 43.6133 13.4875 43.8981 14.0263C44.4907 15.1467 43.3748 16.0267 42.7403 16.8343C42.2954 17.3785 41.9056 17.956 41.6627 18.6111C41.4403 19.2108 41.5568 19.9847 42.355 20.0736C43.7103 20.2247 45.1243 19.354 46.1423 18.5666C46.63 18.1892 47.0598 17.7406 47.5786 17.4026C48.8644 16.544 50.3657 17.6892 49.9198 19.0834C49.6208 20.0213 49.1305 20.8705 48.5895 21.7064C47.0411 24.0982 45.0576 26.4676 42.444 27.8325C39.9555 29.0795 37.3732 29.1875 34.7288 28.4293C33.1237 27.9283 30.0419 26.3896 29.7073 24.5323C29.5606 23.7185 30.2481 22.8637 31.1738 22.8823C32.2812 22.9045 32.5602 23.6532 33.2881 24.2967C34.5594 25.3936 36.3023 25.9663 38.0005 25.937C40.7689 25.8383 42.202 24.6098 43.955 22.8622C42.6727 23.1495 41.3741 23.1387 40.2281 22.4406C39.3791 21.9229 38.786 21.0944 38.5858 20.1464C38.2373 18.5431 38.9686 16.7734 39.9512 15.497C40.6577 14.5793 41.2496 13.5175 42.4778 13.2838Z" fill="var(--fill-0, #DA5700)"/>
<path id="Vector_11" d="M15.9903 0.00248983C16.5969 -0.0309344 17.4384 0.273034 17.557 0.861814C17.8188 2.16071 16.3575 3.79808 15.7419 4.97423C16.1989 4.9292 16.6755 4.90482 17.1306 4.89884C18.0529 4.88657 18.974 4.79666 19.8833 4.95068C21.0225 5.14368 21.4425 6.36826 20.7746 7.16024C20.2626 7.76752 19.3117 7.6937 18.5741 7.7302C17.1034 7.74803 15.6724 7.86149 14.2053 7.97155C13.6869 9.19166 12.3669 12.4025 14.581 12.7528C15.6933 12.9288 17.4701 11.3494 18.503 12.5583C19.2734 13.46 18.6327 14.3175 17.7752 14.867C16.5732 15.4693 15.0286 15.7956 13.6742 15.5338C12.549 15.315 11.5647 14.694 10.9381 13.8077C9.869 12.2681 10.1705 10.2721 10.5783 8.58405C9.5178 8.81221 7.91103 9.47796 6.93867 8.9518C6.34252 8.62917 5.99728 7.66293 6.47385 7.1697C7.57373 6.0312 10.3255 5.69953 11.9263 5.42816C12.6428 4.0741 13.412 2.7441 14.2322 1.44073C14.7172 0.671637 15.0552 0.232644 15.9903 0.00248983Z" fill="var(--fill-0, #DA5700)"/>
<path id="Vector_12" d="M28.8324 9.375C29.2455 9.39005 29.576 9.44122 29.9139 9.68594C30.3823 10.0252 30.3396 10.1893 30.402 10.6967L30.5134 10.7767C32.4107 9.84765 34.4386 8.73386 36.63 9.9104C37.3872 10.3224 37.9346 10.9927 38.1518 11.7738C38.7469 13.8769 37.1618 15.7834 36.0078 17.4621C35.6248 17.9973 35.1775 18.5449 34.4722 18.7031C33.366 18.9513 32.4946 18.1805 32.6343 17.1762C32.6897 16.7784 32.8113 16.6028 33.0619 16.252C33.4437 15.7851 33.8021 15.3027 34.1359 14.806C34.4527 14.3325 35.2759 13.0754 35.1402 12.5604C35.0944 12.5046 35.0475 12.4238 34.9801 12.3912C34.6332 12.2235 34.1885 12.3117 33.8278 12.4017C30.9364 13.1234 29.0698 16.3988 27.6058 16.7582C27.2273 16.8511 26.8345 16.8186 26.4937 16.6332C26.1519 16.4473 25.9201 16.1793 25.8298 15.8206C25.7463 15.4888 25.7808 15.1519 25.8558 14.8219C25.9871 14.2449 27.4079 10.3873 27.6698 10.0243C27.9534 9.63146 28.344 9.4695 28.8324 9.375Z" fill="var(--fill-0, #DA5700)"/>
<path id="Vector_13" d="M23.5543 7.82208C26.3471 7.59687 24.2921 11.4041 23.9659 12.7356C23.6551 14.0048 23.8019 15.1075 22.578 15.6177C19.5715 15.8523 21.9814 10.3346 22.4726 8.94264C22.681 8.3523 23.0215 8.02561 23.5543 7.82208Z" fill="var(--fill-0, #DA5700)"/>
<path id="Vector_14" d="M25.7887 3.15568C26.8475 2.98616 27.8773 3.53627 28.0873 4.38365C28.2973 5.23103 27.6079 6.05392 26.5483 6.2204C25.4914 6.38651 24.466 5.83663 24.2564 4.99138C24.0469 4.14612 24.7325 3.32482 25.7887 3.15568Z" fill="var(--fill-0, #DA5700)"/>
</g>
</svg>
