<svg preserveAspectRatio="none" width="100%" height="100%" overflow="visible" style="display: block;" viewBox="0 0 76.4212 80.8526" fill="none" xmlns="http://www.w3.org/2000/svg">
<g id="bear-comment">
<path id="Vector" d="M11.959 0.0826215C15.5879 -0.406429 19.2719 1.29646 20.8987 4.63695C27.8357 3.06601 35.5905 4.31591 42.0164 7.24067C45.8592 2.2432 53.8233 2.53303 57.3562 7.67791C58.6712 9.62653 59.1633 12.016 58.7252 14.326C58.292 16.5337 57.2319 17.7551 55.4498 18.9702C57.6967 23.2266 58.7695 29.6844 56.4562 34.1088C60.2508 35.5268 63.9753 38.5884 66.6322 41.6013C66.9863 41.3785 67.2914 41.2091 67.6747 41.0368C69.1655 40.3726 70.8593 40.3328 72.3804 40.9262C73.9257 41.536 75.1589 42.7465 75.7968 44.2814C77.4588 48.1944 75.6877 51.7928 71.8517 53.3504C73.0152 61.6406 72.2062 74.4427 63.9023 79.0973C60.3994 81.0607 55.5815 81.3031 51.768 80.1923C49.9906 79.5679 47.5905 78.4297 47.722 76.1136C47.8163 74.4526 49.3597 73.5601 50.5163 72.5789L50.6632 71.1683C46.3359 73.1162 40.5051 73.1333 35.8934 72.4424C35.9617 77.714 32.3619 79.5093 27.6366 80.1689C24.3037 80.6343 19.9508 80.439 17.0899 78.4619C16.2446 77.8777 15.6251 76.828 15.5457 75.8119C15.3799 73.8923 16.9181 73.4295 17.9477 72.2018C18.5628 71.4683 18.3977 70.9392 18.293 70.0237C13.8975 69.1626 15.2519 66.2836 17.6946 64.0792C16.9151 62.744 16.8345 61.7127 16.661 60.213C9.85538 62.5078 3.98435 57.4619 4.04116 50.5485C4.07555 46.3519 5.51407 43.3139 8.38187 40.364C7.75222 39.8871 7.13894 39.3891 6.54293 38.8708C-2.2462 31.2098 -1.80806 20.2943 5.63027 11.8403C4.98123 11.0455 4.4531 9.6988 4.35523 8.68403C3.89693 3.93245 7.56693 0.659847 11.959 0.0826215Z" fill="var(--fill-0, #3F331C)"/>
<path id="Vector_2" d="M12.386 1.67697C15.1721 1.39245 18.5244 2.60008 19.4013 5.48969C19.7964 6.79155 20.6271 6.34613 21.7486 6.11691C23.569 5.74482 25.0522 5.60786 26.9103 5.58892C30.9545 5.55332 34.974 6.22432 38.7875 7.57149C39.929 7.98524 41.0276 8.53914 42.1508 9.00531C42.6085 9.19529 42.8724 8.72063 43.1313 8.43414C43.4663 8.06387 43.7974 7.55331 44.1657 7.22485C46.4202 5.21426 49.4007 4.8049 52.2289 5.72391C54.0809 6.31432 55.6173 7.62558 56.4915 9.36195C57.9704 12.3093 57.5018 16.2547 54.4641 17.6125C53.3701 18.1015 53.4273 18.4024 53.9411 19.426C55.6173 22.7654 56.5372 26.5028 56.0298 30.2454C55.8053 31.9227 54.9416 33.3445 54.6889 34.9668C54.6874 34.9979 58.5125 36.8498 58.9841 37.1377C62.7594 39.4422 66.0319 42.6072 67.9961 46.6128C71.4534 53.5339 71.3125 62.365 69.2097 69.6562C66.8767 77.7424 59.4756 80.8379 51.7558 78.5431C50.8937 78.2867 49.8687 77.6856 49.5025 76.8167C48.7295 74.9828 51.5357 74.3257 52.054 72.8676C52.398 71.8789 51.8794 70.7848 52.5813 69.8305C52.7128 69.6517 52.5789 69.3804 52.4704 69.2007C52.3697 69.1554 52.2492 69.101 52.1088 69.0378C50.4442 69.5155 48.7197 70.2532 47.0371 70.6257C43.3538 71.4199 39.5485 71.4662 35.8469 70.7618C34.7922 70.5666 32.684 69.5837 32.008 70.2588C31.7133 71.4975 33.397 71.8021 34.2728 72.056C34.2922 73.3573 34.3456 74.8488 33.4643 75.958C32.1492 77.613 29.2525 78.3563 27.1693 78.6363C24.4852 78.997 20.4258 78.8556 18.1081 77.2668C17.6409 76.9466 17.2485 76.3116 17.1998 75.7347C17.0985 74.5296 18.5729 74.0183 19.2568 73.1578C20.1482 72.0363 20.0745 71.196 19.9533 69.8858C22.3956 69.7318 24.9333 68.6054 26.8607 67.1184C29.5834 68.1874 31.7267 68.6137 34.6069 68.9124C39.4459 69.1711 44.5802 68.5019 48.9022 66.1947C51.0315 67.7182 54.7496 67.7541 57.219 67.0687C57.9977 66.8527 59.0326 66.4951 58.6939 65.5198C57.9582 64.881 56.8261 65.4826 55.8874 65.7138C51.1328 66.8845 44.6011 63.1848 47.2015 57.711C48.6554 54.6503 53.4714 53.4356 56.6104 53.6195C57.4361 53.6679 58.5513 53.9331 58.9123 52.8361C60.8749 45.2958 54.4441 39.3309 48.2794 36.5577C38.387 32.1078 20.8827 34.4213 16.1467 45.5722C15.4345 45.6943 14.1777 45.8829 13.9566 46.6924C14.4554 47.4091 15.9711 47.231 16.7667 47.2717C21.6399 47.5211 23.1727 53.3691 19.7752 56.5193C13.8277 62.0338 5.25673 58.334 5.62064 50.1248C5.7838 46.4413 7.16354 43.7158 9.81499 41.1948C10.6808 41.8129 12.5964 43.0651 13.5841 42.268L13.57 41.9952C13.1234 41.1327 11.8344 40.6121 10.976 40.125C1.5534 34.7767 -1.34076 24.1609 5.02053 15.16C5.60761 14.3293 6.95992 12.8532 7.4211 12.0326C7.17294 11.0136 5.96409 9.41543 5.89986 8.39915C5.64867 4.42993 8.65312 2.09694 12.386 1.67697Z" fill="var(--fill-0, #FFF1D5)"/>
<path id="Vector_3" d="M20.1992 26.9126C21.4921 26.9235 23.3259 26.9734 24.0903 28.2122C24.2887 29.6292 22.4547 29.7968 21.9233 30.7317C21.7325 32.6212 23.7617 32.3884 24.3605 33.2295C24.4208 33.6328 24.4423 33.468 24.2606 33.8529C23.4052 34.5891 22.2693 33.7878 21.5207 33.2585C21.2604 32.9582 21.0397 32.5887 20.8218 32.2525C20.0967 32.8914 18.4847 34.0038 17.3503 33.0341C17.138 32.8526 17.1938 32.6115 17.2359 32.3628C18.187 31.1944 19.1857 32.9954 20.2032 30.3452L20.2576 30.2016C18.577 29.2308 17.4418 27.3589 20.1992 26.9126Z" fill="var(--fill-0, #3F331C)"/>
<path id="Vector_4" d="M34.3123 23.9151C35.5864 23.7903 36.723 24.7158 36.8592 25.9891C36.9954 27.2624 36.0803 28.4075 34.8087 28.5552C33.5208 28.7049 32.358 27.7753 32.22 26.4857C32.082 25.1961 33.0219 24.0415 34.3123 23.9151Z" fill="var(--fill-0, #3F331C)"/>
<path id="Vector_5" d="M12.4143 20.7596C13.6405 20.5102 14.8416 21.2847 15.121 22.5047C15.4004 23.7246 14.656 24.945 13.4436 25.2544C12.6323 25.4615 11.7725 25.2122 11.1974 24.6035C10.6224 23.9946 10.4224 23.122 10.6753 22.3234C10.928 21.525 11.5937 20.9264 12.4143 20.7596Z" fill="var(--fill-0, #3F331C)"/>
<path id="Vector_6" d="M12.7471 7.00423C13.3501 7.00257 13.5958 7.07392 13.582 7.63797C13.2167 8.26337 11.8862 8.64985 11.0707 9.28495L10.9498 9.38025C10.5971 9.42252 10.2512 9.29329 10.0232 9.02982C9.98398 7.8478 11.7766 7.15013 12.7471 7.00423Z" fill="var(--fill-0, #3F331C)"/>
<path id="Vector_7" d="M49.1379 11.284C50.0296 11.4713 51.8448 12.2953 51.7871 13.4546C51.7721 13.7566 51.4392 13.9628 51.216 14.1499C50.7106 13.8994 48.7787 12.447 48.6199 11.8782C48.7805 11.4677 48.7353 11.5927 49.1379 11.284Z" fill="var(--fill-0, #3F331C)"/>
<path id="Vector_8" d="M23.0497 39.9762C23.282 39.7893 23.5598 39.5981 23.8188 39.4504C30.2514 35.7802 37.6022 35.2957 44.6373 37.0169C51.2245 38.9415 58.9313 44.2585 57.6051 52.1392C50.922 51.2145 41.8944 55.9304 46.1083 63.5893C46.6084 64.208 46.9825 64.6081 47.5307 65.1695C46.4616 65.5932 44.9843 66.1492 43.8554 66.3997C42.6154 66.8507 40.0221 67.227 38.7063 67.3172C35.6473 67.5362 32.5733 67.2275 29.6189 66.4042C29.0703 66.2557 28.2067 66.0541 27.7949 65.6941C27.913 65.2941 27.9628 65.1416 27.906 64.7281C27.7428 64.6253 27.3047 64.3673 27.1351 64.5877C25.1123 67.2204 20.5837 69.0102 17.3713 68.1307C16.0811 67.7776 18.5819 65.0975 19.0929 64.9049C19.8101 64.2838 22.6478 61.6035 21.2156 60.6832C20.8708 60.6973 20.6092 60.9434 20.3112 61.154C19.8001 60.9039 19.1488 59.7298 18.8248 59.2084C23.9872 55.9069 25.1671 49.4826 19.3094 46.2812C18.7886 46.0533 18.2941 45.9186 17.7505 45.7568C18.7393 43.5699 20.9873 41.1845 23.0497 39.9762Z" fill="var(--fill-0, #DA5700)"/>
<path id="Vector_9" d="M23.0497 39.9762C23.282 39.7893 23.5598 39.5981 23.8187 39.4504C30.2514 35.7802 37.6021 35.2957 44.6373 37.0169C45.0908 37.516 45.633 37.7208 46.2542 37.9646C49.3471 39.1783 52.1953 40.769 54.2293 43.479C54.8547 44.3121 56.2279 46.4943 54.938 47.353C54.2746 47.1893 53.3355 45.0076 52.7648 44.3627C45.8412 36.5383 32.8372 36.1311 24.2293 41.2455C22.7673 42.1142 21.1539 43.2603 20.1795 44.649C19.6107 44.6849 19.0446 45.3796 18.666 45.7823L18.3537 45.6862L18.2362 45.448C18.5473 43.4891 22.7497 40.7409 23.0497 39.9762Z" fill="var(--fill-0, #F06D16)"/>
<path id="Vector_10" d="M46.108 63.5893C46.6081 64.2081 46.9822 64.6082 47.5305 65.1695C46.4613 65.5933 44.984 66.1493 43.8551 66.3997C42.6151 66.8507 40.0218 67.2271 38.706 67.3172C35.647 67.5363 32.573 67.2275 29.6186 66.4043C29.07 66.2558 28.2064 66.0541 27.7946 65.6942C27.9127 65.2942 27.9625 65.1416 27.9057 64.7282L27.9677 64.4208C28.4137 64.1604 31.9434 65.3056 32.9317 65.4263C35.8782 65.7864 38.8881 65.6127 41.7576 64.8367C43.0331 64.4917 44.1435 64.0336 45.4435 63.7074L46.108 63.5893Z" fill="var(--fill-0, #F06D16)"/>
<path id="Vector_11" d="M46.1083 63.5893C46.6084 64.2081 46.9825 64.6082 47.5308 65.1695C46.4616 65.5933 44.9843 66.1493 43.8555 66.3997C44.43 65.6801 45.8501 65.4224 45.8779 64.3152C45.7646 63.962 45.7433 63.9245 45.4438 63.7074L46.1083 63.5893Z" fill="var(--fill-0, #F06D16)"/>
<path id="Vector_12" d="M28.4124 47.4836C30.0144 47.1946 31.553 48.2419 31.8716 49.8388C32.1903 51.4356 31.1718 52.9936 29.5816 53.3419C28.5264 53.573 27.4286 53.2162 26.7108 52.4087C25.993 51.6012 25.7671 50.469 26.1199 49.4479C26.4728 48.4266 27.3494 47.6756 28.4124 47.4836Z" fill="var(--fill-0, #FFF1D5)"/>
<path id="Vector_13" d="M37.546 47.4765C39.1733 47.2258 40.6951 48.3433 40.9436 49.9712C41.1921 51.5991 40.0729 53.1199 38.445 53.3662C36.8202 53.6121 35.3033 52.4952 35.0553 50.8703C34.8073 49.2455 35.9219 47.7267 37.546 47.4765Z" fill="var(--fill-0, #FFF1D5)"/>
<path id="Vector_14" d="M46.5916 47.4764C48.1997 47.3058 49.6471 48.4575 49.8424 50.0633C50.0377 51.6689 48.9087 53.1343 47.3067 53.3544C46.248 53.4998 45.1933 53.0634 44.5468 52.2125C43.9002 51.3615 43.7623 50.2281 44.1861 49.2469C44.6097 48.2657 45.529 47.589 46.5916 47.4764Z" fill="var(--fill-0, #FFF1D5)"/>
<path id="Vector_15" d="M55.0669 48.3824C55.796 48.5033 56.329 48.4988 56.6585 49.1764C56.6966 49.6478 56.5056 50.0392 56.3394 50.4856C56.0393 50.774 55.8679 50.9216 55.4761 50.7512C55.1363 50.225 55.1204 49.0537 55.0669 48.3824Z" fill="var(--fill-0, #F06D16)"/>
<path id="Vector_16" d="M69.8099 42.1314C74.558 41.7055 76.7472 48.3724 72.4824 51.3099L71.5234 51.7722C70.5614 47.865 69.669 46.1413 67.5601 42.7862C68.4191 42.3904 68.8797 42.2645 69.8099 42.1314Z" fill="var(--fill-0, #FFF1D5)"/>
</g>
</svg>
