<svg preserveAspectRatio="none" width="100%" height="100%" overflow="visible" style="display: block;" viewBox="0 0 4.00002 14.6667" fill="none" xmlns="http://www.w3.org/2000/svg">
<g id="Shape">
<path d="M4.73143e-06 12.7029C-5.08201e-05 12.9857 -0.000104782 13.2604 0.0303621 13.487C0.0647089 13.7425 0.14839 14.034 0.390534 14.2762C0.632677 14.5183 0.924195 14.602 1.17966 14.6363C1.40627 14.6668 1.68102 14.6667 1.96374 14.6667H2.03628C2.31899 14.6667 2.59375 14.6668 2.82036 14.6363C3.07582 14.602 3.36734 14.5183 3.60949 14.2762C3.85163 14.034 3.93531 13.7425 3.96966 13.487C4.00012 13.2604 4.00007 12.9857 4.00001 12.703V12.6304C4.00007 12.3477 4.00012 12.0729 3.96966 11.8463C3.93531 11.5909 3.85163 11.2993 3.60949 11.0572C3.36734 10.8151 3.07582 10.7314 2.82036 10.697C2.59375 10.6666 2.319 10.6666 2.03629 10.6667H1.96374C1.68103 10.6666 1.40627 10.6666 1.17966 10.697C0.924195 10.7314 0.632678 10.8151 0.390534 11.0572C0.14839 11.2993 0.0647089 11.5909 0.0303621 11.8463C-0.000104782 12.0729 -5.08201e-05 12.3477 4.73143e-06 12.6304V12.7029Z" fill="var(--fill-0, #786237)"/>
<path d="M4.73143e-06 7.36962C-5.08201e-05 7.65233 -0.000104782 7.92708 0.0303621 8.15369C0.0647089 8.40916 0.14839 8.70067 0.390534 8.94282C0.632677 9.18496 0.924195 9.26864 1.17966 9.30299C1.40627 9.33346 1.68101 9.3334 1.96372 9.33335H2.03628C2.31899 9.3334 2.59375 9.33346 2.82036 9.30299C3.07582 9.26864 3.36734 9.18496 3.60949 8.94282C3.85163 8.70067 3.93531 8.40916 3.96966 8.15369C4.00012 7.92708 4.00007 7.65233 4.00001 7.36962V7.29707C4.00007 7.01436 4.00012 6.7396 3.96966 6.513C3.93531 6.25753 3.85163 5.96601 3.60949 5.72387C3.36734 5.48172 3.07582 5.39804 2.82036 5.3637C2.59375 5.33323 2.319 5.33328 2.03629 5.33334H1.96374C1.68103 5.33328 1.40627 5.33323 1.17966 5.3637C0.924195 5.39804 0.632677 5.48172 0.390534 5.72387C0.14839 5.96601 0.0647089 6.25753 0.0303621 6.513C-0.000104782 6.73961 -5.08201e-05 7.01436 4.73143e-06 7.29707V7.36962Z" fill="var(--fill-0, #786237)"/>
<path d="M4.73143e-06 2.03628C-5.08201e-05 2.31899 -0.000104782 2.59375 0.0303621 2.82036C0.0647089 3.07582 0.14839 3.36734 0.390534 3.60949C0.632678 3.85163 0.924195 3.93531 1.17966 3.96966C1.40627 4.00012 1.68102 4.00007 1.96374 4.00002H2.03628C2.319 4.00007 2.59375 4.00012 2.82036 3.96966C3.07582 3.93531 3.36734 3.85163 3.60949 3.60949C3.85163 3.36734 3.93531 3.07582 3.96966 2.82036C4.00012 2.59375 4.00007 2.319 4.00001 2.03628V1.96374C4.00007 1.68102 4.00012 1.40627 3.96966 1.17966C3.93531 0.924195 3.85163 0.632677 3.60949 0.390533C3.36734 0.14839 3.07582 0.0647084 2.82036 0.0303621C2.59375 -0.000104576 2.319 -5.11717e-05 2.0363 4.77721e-06H1.96372C1.68101 -5.11717e-05 1.40627 -0.000104576 1.17966 0.0303621C0.924195 0.0647084 0.632678 0.14839 0.390534 0.390533C0.14839 0.632677 0.0647089 0.924195 0.0303621 1.17966C-0.000104782 1.40627 -5.08201e-05 1.68103 4.73143e-06 1.96374V2.03628Z" fill="var(--fill-0, #786237)"/>
</g>
</svg>
