<svg preserveAspectRatio="none" width="100%" height="100%" overflow="visible" style="display: block;" viewBox="0 0 14.6667 14.357" fill="none" xmlns="http://www.w3.org/2000/svg">
<g id="Shape">
<path d="M13.4714 0.885618C12.2906 -0.295207 10.3761 -0.295205 9.19527 0.885619L8.47155 1.60933C8.21441 1.86647 8.21078 2.28225 8.4634 2.54384L8.47552 2.55639L11.8005 5.88134L11.8135 5.89391C12.0751 6.14625 12.4907 6.1425 12.7477 5.88547L13.4714 5.16176C14.6522 3.98094 14.6522 2.06644 13.4714 0.885618Z" fill="var(--fill-0, white)"/>
<path d="M6.60209 3.47877C6.85662 3.22425 7.27039 3.22786 7.52044 3.48679L7.5286 3.49509L10.8619 6.82842L10.8705 6.83686C11.1294 7.08655 11.1332 7.50004 10.8788 7.75437L5.69016 12.9431C5.4425 13.1914 5.2231 13.4113 4.94472 13.5552L4.93761 13.5589C4.65865 13.7018 4.35218 13.7525 4.00622 13.8097L0.776274 14.348C0.563903 14.3833 0.347511 14.314 0.195271 14.1618C0.0430299 14.0095 -0.0263161 13.7931 0.0090791 13.5808L0.547345 10.3508C0.604577 10.0048 0.655276 9.69838 0.798125 9.41942L0.798731 9.41824L0.801173 9.4135L0.801788 9.41231C0.945752 9.13393 1.16567 8.91454 1.41393 8.66687L6.60209 3.47877Z" fill="var(--fill-0, white)"/>
<path d="M14.6667 13H6.66667V14.3333H14.6667V13Z" fill="var(--fill-0, white)"/>
</g>
</svg>
